<?xml version="1.0" encoding="UTF-8"?>
<svg xmlns="http://www.w3.org/2000/svg" xmlns:xlink="http://www.w3.org/1999/xlink" width="30pt" height="30pt" viewBox="0 0 30 30" version="1.1">
<g id="surface1">
<path style="stroke:none;fill-rule:nonzero;fill:#eeeeee;" d="M 27.1875 0 C 28.742188 0 30 1.257812 30 2.8125 L 30 19.6875 C 30 21.242188 28.742188 22.5 27.1875 22.5 L 10.3125 22.5 C 8.757812 22.5 7.5 21.242188 7.5 19.6875 L 7.5 2.8125 C 7.5 1.257812 8.757812 0 10.3125 0 L 27.1875 0 M 10.3125 24.375 C 7.726562 24.375 5.625 22.273438 5.625 19.6875 L 5.625 7.5 L 2.8125 7.5 C 1.257812 7.5 0 8.757812 0 10.3125 L 0 27.1875 C 0 28.742188 1.257812 30 2.8125 30 L 19.6875 30 C 21.242188 30 22.5 28.742188 22.5 27.1875 L 22.5 24.375 Z M 10.3125 24.375 "/>
</g>
</svg>
